<svg width="67" height="73" viewBox="0 0 67 73" fill="none" xmlns="http://www.w3.org/2000/svg">
    <path d="M36.8278 4.65995C37.4713 2.85948 39.4526 1.92161 41.2531 2.56516C59.9428 9.24556 70.8609 30.3054 63.9131 49.4051C57.6746 66.5554 38.2254 76.5766 20.6179 70.0725C4.97885 64.2955 -4.18969 46.5005 1.89895 30.4077C7.23261 16.3103 23.4168 8.03067 38.0168 13.6879C50.5915 18.5603 58.0247 33.1008 52.7679 46.1938C48.3413 57.219 35.4064 63.7782 23.8041 58.9282C14.3223 54.9647 8.59069 43.6529 13.0772 33.5459C16.5875 25.6382 26.3184 20.741 34.9438 24.8866C41.2525 27.9186 45.399 36.0934 41.4883 43.2468C40.1315 45.7287 37.819 47.654 35.1891 48.5632C32.5077 49.4903 29.3033 49.4069 26.5114 47.5039C24.8263 46.3554 23.5279 44.4861 23.0291 42.4651C22.5044 40.3396 22.8115 37.611 25.0826 35.6487C25.8356 34.998 26.7083 34.6803 27.3363 34.5234C28.0137 34.3542 28.817 34.2699 29.6381 34.372C30.3849 34.465 31.6742 34.7844 32.6469 35.9301C33.7842 37.2697 33.7994 38.8867 33.4387 40.0911C33.1498 41.0557 32.4778 41.8008 31.6389 42.2099C32.0384 42.2384 32.4691 42.1774 32.9266 42.0192C33.952 41.6647 34.8937 40.8751 35.4129 39.9254C37.0084 37.0069 35.504 32.8381 31.9444 31.1273C27.4168 28.9512 21.6039 31.4035 19.4058 36.3552C16.709 42.4304 20.0686 49.862 26.4746 52.5398C34.1147 55.7335 43.1885 51.4693 46.3424 43.614C50.0189 34.4569 44.8625 23.7662 35.5151 20.1442C24.8052 15.9944 12.4663 22.0443 8.37502 32.8578C3.75449 45.0704 10.6938 59.0252 23.0171 63.5773C36.7791 68.6609 52.388 60.8335 57.4062 47.0382C62.9556 31.7826 54.2384 14.5597 38.9226 9.08525C37.1221 8.4417 36.1842 6.46043 36.8278 4.65995Z" fill="#27A2B5"/>
    <path d="M33.1522 2.00337C32.6762 1.04954 33.4112 -0.0619465 34.4753 0.00269274L44.0519 0.584446C45.116 0.649085 45.711 1.84137 45.123 2.73057L39.8309 10.7333C39.2429 11.6225 37.9128 11.5417 37.4367 10.5879L33.1522 2.00337Z" fill="#27A2B5"/>
</svg>
    