<svg width="673" height="140" viewBox="0 0 673 140" fill="none" xmlns="http://www.w3.org/2000/svg">
<path d="M71.1728 9.00575C72.4165 5.52619 76.2455 3.71368 79.7251 4.9574C115.845 17.8678 136.945 58.5677 123.518 95.4796C111.461 128.624 73.8739 147.991 39.8458 135.421C9.62206 124.256 -8.09692 89.8663 3.66988 58.7654C13.9776 31.521 45.2549 15.5199 73.4707 26.453C97.7723 35.8694 112.138 63.9701 101.978 89.2734C93.4237 110.581 68.4258 123.257 46.0035 113.884C27.6791 106.224 16.6022 84.363 25.2729 64.8303C32.0567 49.548 50.8625 40.0838 67.5318 48.0954C79.7239 53.9551 87.7374 69.7535 80.1797 83.5781C77.5576 88.3745 73.0885 92.0953 68.0059 93.8526C62.8239 95.6442 56.6311 95.483 51.2355 91.8054C47.979 89.5857 45.4697 85.9731 44.5057 82.0675C43.4917 77.9596 44.0853 72.6865 48.4742 68.8942C49.9296 67.6366 51.6161 67.0226 52.8297 66.7194C54.1389 66.3924 55.6913 66.2295 57.2781 66.4269C58.7214 66.6064 61.2131 67.2237 63.0928 69.4379C65.2907 72.0269 65.3202 75.1518 64.6231 77.4795C64.0647 79.3437 62.7662 80.7836 61.1449 81.5742C61.9169 81.6293 62.7492 81.5115 63.6334 81.2058C65.6152 80.5206 67.435 78.9946 68.4384 77.1593C71.5218 71.519 68.6146 63.4625 61.7352 60.1561C52.9853 55.9507 41.7513 60.6899 37.5034 70.2595C32.2916 82.0003 38.7843 96.3626 51.1644 101.538C65.9295 107.71 83.4654 99.4688 89.5606 84.2877C96.6658 66.5909 86.7006 45.9301 68.6359 38.9304C47.9382 30.9105 24.0921 42.6024 16.1854 63.5006C7.25587 87.1023 20.6667 114.071 44.4826 122.869C71.0787 132.693 101.244 117.566 110.942 90.9053C121.667 61.4225 104.82 28.1378 75.2212 17.558C71.7416 16.3143 69.9291 12.4853 71.1728 9.00575Z" fill="#27A2B5"/>
<path d="M64.0695 3.87169C63.1495 2.02833 64.57 -0.119717 66.6264 0.00520395L85.134 1.12949C87.1905 1.25441 88.3405 3.55861 87.2041 5.27705L76.9766 20.743C75.8402 22.4615 73.2697 22.3053 72.3497 20.4619L64.0695 3.87169Z" fill="#27A2B5"/>
<path d="M145.808 122V25.104H162.576V88.592L156.176 86.672L188.944 52.368H209.808L184.08 80.4L210.32 122H191.12L168.336 85.904L178.32 83.856L157.328 106.384L162.576 96.144V122H145.808ZM216.099 122V52.368H231.843V66.064L230.563 63.632C232.184 59.4507 234.83 56.2933 238.499 54.16C242.254 51.9413 246.606 50.832 251.555 50.832C256.675 50.832 261.198 51.9413 265.123 54.16C269.134 56.3787 272.248 59.4933 274.467 63.504C276.686 67.4293 277.795 71.9947 277.795 77.2V122H261.027V81.168C261.027 78.096 260.43 75.4507 259.235 73.232C258.04 71.0133 256.376 69.3067 254.243 68.112C252.195 66.832 249.763 66.192 246.947 66.192C244.216 66.192 241.784 66.832 239.651 68.112C237.518 69.3067 235.854 71.0133 234.659 73.232C233.464 75.4507 232.867 78.096 232.867 81.168V122H216.099ZM322.438 123.536C315.611 123.536 309.382 121.957 303.75 118.8C298.203 115.643 293.766 111.333 290.438 105.872C287.195 100.411 285.574 94.1813 285.574 87.184C285.574 80.1867 287.195 73.9573 290.438 68.496C293.766 63.0347 298.203 58.7253 303.75 55.568C309.297 52.4107 315.526 50.832 322.438 50.832C329.265 50.832 335.451 52.4107 340.998 55.568C346.545 58.7253 350.939 63.0347 354.182 68.496C357.51 73.872 359.174 80.1013 359.174 87.184C359.174 94.1813 357.51 100.411 354.182 105.872C350.854 111.333 346.417 115.643 340.87 118.8C335.323 121.957 329.179 123.536 322.438 123.536ZM322.438 108.176C326.193 108.176 329.478 107.28 332.294 105.488C335.195 103.696 337.457 101.221 339.078 98.064C340.785 94.8213 341.638 91.1947 341.638 87.184C341.638 83.088 340.785 79.504 339.078 76.432C337.457 73.2747 335.195 70.8 332.294 69.008C329.478 67.1307 326.193 66.192 322.438 66.192C318.598 66.192 315.227 67.1307 312.326 69.008C309.425 70.8 307.121 73.2747 305.414 76.432C303.793 79.504 302.982 83.088 302.982 87.184C302.982 91.1947 303.793 94.8213 305.414 98.064C307.121 101.221 309.425 103.696 312.326 105.488C315.227 107.28 318.598 108.176 322.438 108.176ZM384.592 122L360.656 52.368H378.32L395.856 105.232L389.712 105.104L408.4 52.368H423.248L441.808 105.104L435.664 105.232L453.2 52.368H470.864L446.928 122H431.952L413.008 66.832H418.64L399.44 122H384.592ZM476.472 122V25.104H493.24V122H476.472ZM505.138 122V52.368H521.906V122H505.138ZM505.138 44.56V26.64H521.906V44.56H505.138ZM533.804 122V52.368H549.548V66.064L548.268 63.632C549.889 59.4507 552.535 56.2933 556.204 54.16C559.959 51.9413 564.311 50.832 569.26 50.832C574.38 50.832 578.903 51.9413 582.828 54.16C586.839 56.3787 589.953 59.4933 592.172 63.504C594.391 67.4293 595.5 71.9947 595.5 77.2V122H578.732V81.168C578.732 78.096 578.135 75.4507 576.94 73.232C575.745 71.0133 574.081 69.3067 571.948 68.112C569.9 66.832 567.468 66.192 564.652 66.192C561.921 66.192 559.489 66.832 557.356 68.112C555.223 69.3067 553.559 71.0133 552.364 73.232C551.169 75.4507 550.572 78.096 550.572 81.168V122H533.804ZM606.095 122V25.104H622.863V88.592L616.463 86.672L649.231 52.368H670.095L644.367 80.4L670.607 122H651.407L628.623 85.904L638.607 83.856L617.615 106.384L622.863 96.144V122H606.095Z" fill="black"/>
</svg>
